<svg width="84" height="105" viewBox="0 0 84 105" fill="none" xmlns="http://www.w3.org/2000/svg">
<rect x="5" y="0.624023" width="74" height="74" rx="10" fill="#3491E6" fill-opacity="0.1"/>
<path d="M48.3114 33.1865C47.6793 33.1865 47.1551 32.6624 47.1551 32.0303V26.6344C47.1551 24.9694 46.1222 23.9365 44.4572 23.9365H39.8322C38.1672 23.9365 37.1343 24.9694 37.1343 26.6344V32.0303C37.1343 32.6624 36.6101 33.1865 35.978 33.1865C35.3459 33.1865 34.8218 32.6624 34.8218 32.0303V26.6344C34.8218 23.6899 36.8876 21.624 39.8322 21.624H44.4572C47.4018 21.624 49.4676 23.6899 49.4676 26.6344V32.0303C49.4676 32.6624 48.9434 33.1865 48.3114 33.1865Z" fill="#3491E6"/>
<path d="M35.9779 47.1078C35.6713 47.1078 35.3772 46.986 35.1603 46.7691C34.9435 46.5523 34.8217 46.2582 34.8217 45.9515C34.8217 45.6449 34.9435 45.3508 35.1603 45.1339C35.3772 44.9171 35.6713 44.7953 35.9779 44.7953H54.1079C54.5704 44.7953 54.925 44.3944 54.8787 43.9319L53.8304 35.1599C53.4604 32.169 52.9362 29.7178 47.6946 29.7178H36.5946C31.3529 29.7178 30.8287 32.169 30.4742 35.1599L29.0867 46.7224C28.6396 50.5149 29.8112 53.6136 35.2225 53.6136H49.0667C53.9383 53.6136 55.3721 51.1007 55.295 47.8324C55.287 47.6347 55.2017 47.4481 55.0576 47.3126C54.9135 47.1771 54.7219 47.1036 54.5242 47.1078H35.9779Z" fill="#3491E6"/>
<path d="M1.128 102.624H3.912C6.528 102.624 8.376 100.908 8.376 98.496C8.376 96.084 6.528 94.38 3.912 94.38H1.128V102.624ZM2.064 101.772V95.232H3.912C5.976 95.232 7.428 96.588 7.428 98.496C7.428 100.416 5.976 101.772 3.912 101.772H2.064ZM12.9326 102.768C14.6726 102.768 16.1366 101.28 16.1366 99.516C16.1366 97.752 14.6726 96.276 12.9326 96.276C11.1926 96.276 9.71663 97.752 9.71663 99.516C9.71663 101.28 11.1926 102.768 12.9326 102.768ZM12.9326 101.964C11.6966 101.964 10.6646 100.848 10.6646 99.516C10.6646 98.196 11.6966 97.08 12.9326 97.08C14.1566 97.08 15.1886 98.196 15.1886 99.516C15.1886 100.848 14.1566 101.964 12.9326 101.964ZM20.5749 96.276C19.6989 96.276 18.8949 96.756 18.5349 97.416V96.42H17.6349V102.624H18.5349V98.676C18.5349 97.812 19.4109 97.08 20.4549 97.08C21.3669 97.08 22.0029 97.788 22.0029 98.796V102.624H22.9029V98.676C22.9029 97.272 21.9429 96.276 20.5749 96.276ZM27.2445 96.276C26.6445 96.276 25.9005 96.432 25.0125 96.876L25.3725 97.608C25.9365 97.32 26.5605 97.044 27.1845 97.044C28.5285 97.044 28.8645 98.004 28.8645 98.844V99.072C28.2285 98.868 27.5205 98.724 26.8485 98.724C25.5165 98.724 24.4125 99.552 24.4125 100.788C24.4125 102.012 25.3725 102.768 26.6805 102.768C27.4965 102.768 28.4205 102.384 28.8645 101.652V102.624H29.7645V98.844C29.7645 97.344 28.9365 96.276 27.2445 96.276ZM26.8365 101.976C25.9605 101.976 25.2885 101.52 25.2885 100.752C25.2885 100.008 26.0685 99.48 26.9925 99.48C27.6645 99.48 28.3005 99.576 28.8645 99.732V100.68C28.6245 101.556 27.6525 101.976 26.8365 101.976ZM34.3274 101.712C34.1954 101.856 33.9554 101.964 33.6794 101.964C33.3194 101.964 33.0074 101.64 33.0074 101.184V97.224H34.5314V96.42H33.0074V94.716H32.1074V96.42H31.1354V97.224H32.1074V101.184C32.1074 102.108 32.7314 102.768 33.6194 102.768C34.0394 102.768 34.4474 102.624 34.7714 102.372L34.3274 101.712ZM38.8408 101.964C37.6168 101.964 36.7648 101.076 36.6328 99.864H41.7088C41.7088 97.692 40.6408 96.276 38.7688 96.276C37.1008 96.276 35.7088 97.656 35.7088 99.504C35.7088 101.412 37.1968 102.768 38.8528 102.768C39.7168 102.768 40.8088 102.396 41.3488 101.808L40.7968 101.22C40.4128 101.64 39.5728 101.964 38.8408 101.964ZM38.8048 97.08C40.0408 97.08 40.7008 97.944 40.8208 99.06H36.6448C36.8128 97.86 37.7008 97.08 38.8048 97.08ZM50.502 99.168H52.866V101.136C52.254 101.604 51.366 101.904 50.598 101.904C48.822 101.904 47.322 100.344 47.322 98.496C47.322 96.66 48.822 95.1 50.598 95.1C51.498 95.1 52.566 95.508 53.166 96.144L53.802 95.496C53.034 94.716 51.738 94.236 50.598 94.236C48.318 94.236 46.374 96.18 46.374 98.496C46.374 100.812 48.318 102.768 50.598 102.768C51.738 102.768 53.034 102.276 53.802 101.508V98.28H50.502V99.168ZM58.4834 102.768C60.2234 102.768 61.6874 101.28 61.6874 99.516C61.6874 97.752 60.2234 96.276 58.4834 96.276C56.7434 96.276 55.2674 97.752 55.2674 99.516C55.2674 101.28 56.7434 102.768 58.4834 102.768ZM58.4834 101.964C57.2474 101.964 56.2154 100.848 56.2154 99.516C56.2154 98.196 57.2474 97.08 58.4834 97.08C59.7074 97.08 60.7394 98.196 60.7394 99.516C60.7394 100.848 59.7074 101.964 58.4834 101.964ZM66.0537 102.768C67.7937 102.768 69.2577 101.28 69.2577 99.516C69.2577 97.752 67.7937 96.276 66.0537 96.276C64.3137 96.276 62.8377 97.752 62.8377 99.516C62.8377 101.28 64.3137 102.768 66.0537 102.768ZM66.0537 101.964C64.8177 101.964 63.7857 100.848 63.7857 99.516C63.7857 98.196 64.8177 97.08 66.0537 97.08C67.2777 97.08 68.3097 98.196 68.3097 99.516C68.3097 100.848 67.2777 101.964 66.0537 101.964ZM75.592 94.236V97.584C75.124 96.768 74.332 96.276 73.336 96.276C71.704 96.276 70.48 97.62 70.48 99.516C70.48 101.424 71.704 102.768 73.336 102.768C74.332 102.768 75.124 102.276 75.592 101.46V102.624H76.492V94.236H75.592ZM73.504 101.964C72.292 101.964 71.428 100.944 71.428 99.516C71.428 98.088 72.292 97.08 73.504 97.08C74.728 97.08 75.592 98.088 75.592 99.516C75.592 100.944 74.728 101.964 73.504 101.964ZM80.5924 102.768C81.8764 102.768 82.8604 102.036 82.8604 100.896C82.8604 99.72 81.8284 99.384 80.8324 99.072C79.6804 98.7 79.2244 98.532 79.2244 97.992C79.2244 97.392 79.8004 97.08 80.4964 97.08C81.0484 97.08 81.6604 97.272 82.2844 97.668L82.7164 96.972C82.0564 96.54 81.2644 96.276 80.4964 96.276C79.2604 96.276 78.3244 96.972 78.3244 98.1C78.3244 98.988 78.9004 99.432 80.4004 99.864C81.2404 100.104 81.9604 100.32 81.9604 100.992C81.9604 101.58 81.4084 101.964 80.5924 101.964C79.9084 101.964 79.2004 101.7 78.4924 101.184L78.0244 101.844C78.7684 102.444 79.7284 102.768 80.5924 102.768Z" fill="black"/>
</svg>
