<svg width="22" height="22" viewBox="0 0 22 22" fill="none" xmlns="http://www.w3.org/2000/svg">
<path d="M11 21C16.523 21 21 16.523 21 11C21 5.477 16.523 1 11 1C5.477 1 1 5.477 1 11C1 16.523 5.477 21 11 21Z" fill="white" stroke="#3EB489" stroke-width="1.5" stroke-linecap="round" stroke-linejoin="round"/>
<path d="M11.3301 16.4501C11.1501 16.5101 10.8401 16.5101 10.6601 16.4501C9.1001 15.9201 5.6001 13.6901 5.6001 9.91014C5.6001 8.24014 6.9401 6.89014 8.6001 6.89014C9.5801 6.89014 10.4501 7.36014 11.0001 8.10014C11.5401 7.37014 12.4201 6.89014 13.4001 6.89014C15.0601 6.89014 16.4001 8.24014 16.4001 9.91014C16.4001 13.6901 12.9001 15.9201 11.3301 16.4501Z" stroke="#3EB489" stroke-width="1.5" stroke-linecap="round" stroke-linejoin="round"/>
</svg>
